# xmcd
#
# Track frame offsets:
#	150
#	18190
#	33947
#	49910
#	69600
#	86642
#	102017
#	116575
#	130857
#	149702
#	165415
#	177790
#
# Disc length: 2593 seconds
#
# Revision: 1
# Processed by: cddbd v1.5.1PL0 Copyright (c) Steve Scherf et al.
# Submitted via: audiograbber 1.83.01
#
DISCID=9c0a1f0c
DTITLE=TipTop Pop Top Hits - TEG6014
DYEAR=1900
DGENRE=Karaoke
TTITLE0=Reba McEntire - Take It Back
TTITLE1=Mary Chapin Carpenter - Passionate Kisses
TTITLE2=Keith Whitley - I Wonder Do You Think Of Me
TTITLE3=Tanya Tucker - Two Sparrows In A Hurricane
TTITLE4=Charlie Daniels - Devil Went Down To Georgia
TTITLE5=George Strait - Overnight Success
TTITLE6=Don Gibson - Oh Lonesome Me
TTITLE7=Aaron Tippin - You've Got To Stand For Something
TTITLE8=Juice Newton - Break It To Me Gently
TTITLE9=George Strait - Drinkin Champagne
TTITLE10=Tracy Byrd - Holdin Heaven
TTITLE11=Vince Gill - Don't Let Our Love Start Slippin Away
EXTD=
EXTT0=
EXTT1=
EXTT2=
EXTT3=
EXTT4=
EXTT5=
EXTT6=
EXTT7=
EXTT8=
EXTT9=
EXTT10=
EXTT11=
PLAYORDER=
